<?xml version="1.0" encoding="UTF-8"?>
<svg id="Layer_2" data-name="Layer 2" xmlns="http://www.w3.org/2000/svg" viewBox="0 0 140.82 156.6">
  <defs>
    <style>
      .cls-1 {
        fill: #fff;
      }

      .cls-2 {
        fill: #888e7f;
      }

      .cls-3 {
        fill: #cc9887;
      }

      .cls-4 {
        fill: #bfc4ba;
      }

      .cls-5 {
        fill: #83897a;
      }

      .cls-6 {
        fill: none;
        stroke: #fff;
        stroke-miterlimit: 10;
        stroke-width: 2px;
      }
    </style>
  </defs>
  <g id="Layer_1-2" data-name="Layer 1">
    <path class="cls-5" d="M63.84,4.45c-.13.16-.34.34-.64.51.13-.17.35-.34.64-.51Z"/>
    <path class="cls-2" d="M69.59,1.72c-.07.1-.21.2-.38.21.09-.12.19-.17.38-.21Z"/>
    <path class="cls-5" d="M64.57,4.05c-.05.1-.19.21-.41.31.05-.11.19-.21.41-.31Z"/>
  </g>
  <g id="Layer_3" data-name="Layer 3">
    <path class="cls-1" d="M100.76,45.25c.93,3.51,2.91,4.75,5.38,5.17-3.94.47-5.6,3.85-6.02,8.87-.32-2.24-.6-4.39-1.7-6.16-1.13-1.81-2.65-2.26-4.3-2.75,4.02-.38,5.66-3.75,5.92-9.18.27,1.54.48,2.75.72,4.05h0Z"/>
    <path class="cls-3" d="M73.92,154.46c.14-.09.38-.17.63-.16-.17.12-.36.15-.63.16Z"/>
    <path class="cls-3" d="M75.91,154.15c.15-.12.38-.23.66-.26-.16.15-.36.21-.66.26Z"/>
    <path class="cls-4" d="M103.31,147.06c-.08-.04-.13-.12-.17-.21.07.06.14.11.17.21Z"/>
    <path class="cls-4" d="M102.47,147.52l-.05.11s0-.06.03-.08.02-.02.02-.02h0Z"/>
    <path class="cls-4" d="M102.47,147.53l.05-.11s0,.07-.03.08-.02.02-.02.02h0Z"/>
    <path class="cls-1" d="M109.32,25.99c-1.55-.55-2.42-1.66-2.43-3.03,0-1.15.83-2.35,1.97-2.81,1.18-.49,2.53-.18,3.41.76.86.93,1.1,2.39.56,3.47-.65,1.28-1.84,1.84-3.51,1.61h0Z"/>
    <path class="cls-6" d="M22.68,128.41C2.51,108.93-4.28,80.11,5.25,53.8c2.88-7.96,6.91-15.54,12.17-22.19,4.77-6.04,13.21-12.67,20.42-15.55"/>
    <path class="cls-6" d="M117.78,28.19c10.25,9.36,18.37,22.61,20.82,36.34,2.93,16.45.62,32.89-7.25,47.66-6.73,12.63-17.61,23.85-30.55,30.11-1.17.56-2.35,1.09-3.56,1.57-2.17.87-4.39,1.62-6.59,2.38"/>
    <path class="cls-1" d="M104.22,133.21c1.02-3.43,2.54-6.61,3.21-10.2s.89-7.28.68-10.93c-.44-7.3-2.65-14.51-6.58-20.69-10.78-16.93-31.57-24.32-46.05-38.22-4.09-3.92-7.73-8.49-9.61-13.83-1.73-4.91-1.89-10.31-.84-15.41,1.08-5.2,3.46-10.21,7.24-13.94,7.18-7.08,18.47-8.58,28.28-6.25,4.4,1.05,8.61,2.8,12.48,5.15,1.99,1.21,3.89,2.58,5.68,4.08,1.69,1.42,3.21,3.44,4.92,4.67-3.67-6.01-9.63-10.81-16.03-13.66-6.66-2.97-13.73-4.49-21-3.83-8.29.76-16.49,3.63-22.95,8.88-11.34,9.19-16.11,25.69-11.43,39.52,4.2,12.44,14.8,21.59,25.8,28.75s22.98,13.07,32.5,22.11c4.59,4.36,8.48,9.57,11.06,15.36,2.27,5.1,4.61,12.89,2.64,18.43Z"/>
    <path class="cls-1" d="M26.9,136.22c-1.55-.55-2.42-1.66-2.43-3.03,0-1.15.83-2.35,1.97-2.81,1.18-.49,2.53-.18,3.41.76.86.93,1.1,2.39.56,3.47-.65,1.28-1.84,1.84-3.51,1.61h0Z"/>
    <path class="cls-1" d="M31.16,56.92c-.18,3.38.65,6.92,1.6,10.13.83,2.79,1.9,5.51,3.32,8.06,1.82,3.27,3.84,6.72,6.16,9.66,3.39,4.31,7.53,7.95,11.7,11.49,6.11,5.18,12.51,10.43,17.79,16.5,8.66,9.95,15.84,27.12,3.12,37.11-2.8,2.2-6.3,3.02-9.79,3.3-5.92.48-11.51-.77-16.89-3.19-5.79-2.6-11.09-6.36-15.38-11.04,3.36,3.67,6.61,7.35,10.63,10.34,4.62,3.44,11.03,5.93,16.72,6.79,5.57.84,11.33.71,16.81-.61,2.24-.54,4.44-1.29,6.52-2.28,9.19-4.35,14.38-13.44,14.27-23.46-.13-11.97-7.4-20.82-16.26-27.94-9.62-7.73-20.63-13.34-30.82-20.23-3.55-2.4-7.05-4.9-9.95-8.09-2.13-2.34-4.24-4.96-5.8-7.72-.79-1.4-1.47-3.09-1.96-4.61s-.84-2.78-1.43-4.16c-.07-.16-.34-.34-.35-.04Z"/>
  </g>
</svg>