<?xml version="1.0" encoding="UTF-8"?>
<svg id="Layer_2" data-name="Layer 2" xmlns="http://www.w3.org/2000/svg" xmlns:xlink="http://www.w3.org/1999/xlink" viewBox="0 0 419.77 156.6">
  <defs>
    <style>
      .cls-1 {
        fill: #5c6e6c;
      }

      .cls-2 {
        fill: #c58f8a;
      }

      .cls-3 {
        fill: url(#linear-gradient-2);
      }

      .cls-4 {
        fill: url(#linear-gradient);
      }

      .cls-5 {
        fill: none;
        stroke: #c7c0b5;
        stroke-miterlimit: 10;
        stroke-width: 2px;
      }

      .cls-6 {
        fill: #cc9887;
      }

      .cls-7 {
        fill: #bfc4ba;
      }

      .cls-8 {
        fill: #83897a;
      }
    </style>
    <linearGradient id="linear-gradient" x1="30.44" y1="66.6" x2="108.19" y2="66.6" gradientUnits="userSpaceOnUse">
      <stop offset="0" stop-color="#5c6e6c"/>
      <stop offset="0" stop-color="#3e4746"/>
      <stop offset=".38" stop-color="#5c6e6c"/>
      <stop offset="1" stop-color="#708580"/>
    </linearGradient>
    <linearGradient id="linear-gradient-2" x1="31.13" y1="106.68" x2="97.73" y2="106.68" gradientUnits="userSpaceOnUse">
      <stop offset="0" stop-color="#a87974"/>
      <stop offset=".59" stop-color="#c58f8a"/>
    </linearGradient>
  </defs>
  <g id="Original">
    <path class="cls-8" d="M63.84,4.45c-.13.16-.34.34-.64.51.13-.17.35-.34.64-.51Z"/>
    <path class="cls-8" d="M64.57,4.05c-.05.1-.19.21-.41.31.05-.11.19-.21.41-.31Z"/>
    <path class="cls-2" d="M100.76,45.25c.93,3.51,2.91,4.75,5.38,5.17-3.94.47-5.6,3.85-6.02,8.87-.32-2.24-.6-4.39-1.7-6.16-1.13-1.81-2.65-2.26-4.3-2.75,4.02-.38,5.66-3.75,5.92-9.18.27,1.54.48,2.75.72,4.05h0Z"/>
    <path class="cls-6" d="M73.92,154.46c.14-.09.38-.17.63-.16-.17.12-.36.15-.63.16Z"/>
    <path class="cls-6" d="M75.91,154.15c.15-.12.38-.23.66-.26-.16.15-.36.21-.66.26Z"/>
    <path class="cls-7" d="M103.31,147.06c-.08-.04-.13-.12-.17-.21.07.06.14.11.17.21Z"/>
    <path class="cls-7" d="M102.47,147.52l-.05.11s0-.06.03-.08.02-.02.02-.02h0Z"/>
    <path class="cls-7" d="M102.47,147.53l.05-.11s0,.07-.03.08-.02.02-.02.02h0Z"/>
    <path class="cls-1" d="M109.32,25.99c-1.55-.55-2.42-1.66-2.43-3.03,0-1.15.83-2.35,1.97-2.81,1.18-.49,2.53-.18,3.41.76.86.93,1.1,2.39.56,3.47-.65,1.28-1.84,1.84-3.51,1.61h0Z"/>
    <path class="cls-5" d="M22.68,128.41C2.51,108.93-4.28,80.11,5.25,53.8c2.88-7.96,6.91-15.54,12.17-22.19,4.77-6.04,13.21-12.67,20.42-15.55"/>
    <path class="cls-5" d="M117.78,28.19c10.25,9.36,18.37,22.61,20.82,36.34,2.93,16.45.62,32.89-7.25,47.66-6.73,12.63-17.61,23.85-30.55,30.11-1.17.56-2.35,1.09-3.56,1.57-2.17.87-4.39,1.62-6.59,2.38"/>
    <path class="cls-4" d="M104.22,133.21c1.02-3.43,2.54-6.61,3.21-10.2s.89-7.28.68-10.93c-.44-7.3-2.65-14.51-6.58-20.69-10.78-16.93-31.57-24.32-46.05-38.22-4.09-3.92-7.73-8.49-9.61-13.83-1.73-4.91-1.89-10.31-.84-15.41,1.08-5.2,3.46-10.21,7.24-13.94,7.18-7.08,18.47-8.58,28.28-6.25,4.4,1.05,8.61,2.8,12.48,5.15,1.99,1.21,3.89,2.58,5.68,4.08,1.69,1.42,3.21,3.44,4.92,4.67-3.67-6.01-9.63-10.81-16.03-13.66-6.66-2.97-13.73-4.49-21-3.83-8.29.76-16.49,3.63-22.95,8.88-11.34,9.19-16.11,25.69-11.43,39.52,4.2,12.44,14.8,21.59,25.8,28.75s22.98,13.07,32.5,22.11c4.59,4.36,8.48,9.57,11.06,15.36,2.27,5.1,4.61,12.89,2.64,18.43Z"/>
    <path class="cls-2" d="M26.9,136.22c-1.55-.55-2.42-1.66-2.43-3.03,0-1.15.83-2.35,1.97-2.81,1.18-.49,2.53-.18,3.41.76.86.93,1.1,2.39.56,3.47-.65,1.28-1.84,1.84-3.51,1.61h0Z"/>
    <path class="cls-3" d="M31.16,56.92c-.18,3.38.65,6.92,1.6,10.13.83,2.79,1.9,5.51,3.32,8.06,1.82,3.27,3.84,6.72,6.16,9.66,3.39,4.31,7.53,7.95,11.7,11.49,6.11,5.18,12.51,10.43,17.79,16.5,8.66,9.95,15.84,27.12,3.12,37.11-2.8,2.2-6.3,3.02-9.79,3.3-5.92.48-11.51-.77-16.89-3.19-5.79-2.6-11.09-6.36-15.38-11.04,3.36,3.67,6.61,7.35,10.63,10.34,4.62,3.44,11.03,5.93,16.72,6.79,5.57.84,11.33.71,16.81-.61,2.24-.54,4.44-1.29,6.52-2.28,9.19-4.35,14.38-13.44,14.27-23.46-.13-11.97-7.4-20.82-16.26-27.94-9.62-7.73-20.63-13.34-30.82-20.23-3.55-2.4-7.05-4.9-9.95-8.09-2.13-2.34-4.24-4.96-5.8-7.72-.79-1.4-1.47-3.09-1.96-4.61s-.84-2.78-1.43-4.16c-.07-.16-.34-.34-.35-.04Z"/>
    <g>
      <path class="cls-1" d="M183.71,68.79c-.25-2.95-1.45-5.33-3.6-7.15-2.15-1.82-4.94-2.73-8.35-2.73-2.3,0-4.35.43-6.14,1.27-1.79.85-3.19,2.01-4.21,3.47s-1.53,3.15-1.53,5.05c0,1.22.23,2.32.71,3.3.47.98,1.14,1.85,2,2.62s1.89,1.43,3.08,2,2.5,1.07,3.94,1.5l5.19,1.53c1.78.54,3.42,1.17,4.92,1.88,1.5.71,2.82,1.55,3.94,2.53,1.12.98,1.99,2.13,2.62,3.44s.94,2.82.94,4.54c0,2.5-.64,4.74-1.93,6.71-1.29,1.98-3.12,3.53-5.49,4.67-2.37,1.13-5.16,1.7-8.37,1.7s-5.72-.52-7.98-1.55c-2.26-1.03-4.05-2.47-5.36-4.32-1.31-1.84-2.05-3.97-2.22-6.38h2.96c.15,1.96.78,3.65,1.89,5.08,1.1,1.43,2.57,2.53,4.41,3.3,1.84.77,3.94,1.16,6.3,1.16,2.55,0,4.79-.44,6.74-1.31,1.94-.87,3.46-2.09,4.56-3.65,1.1-1.56,1.64-3.37,1.64-5.44,0-1.67-.39-3.09-1.18-4.28-.79-1.19-1.95-2.21-3.48-3.08-1.54-.86-3.44-1.64-5.71-2.32l-5.53-1.67c-3.7-1.13-6.53-2.66-8.49-4.61-1.95-1.94-2.93-4.37-2.93-7.27,0-2.44.65-4.6,1.94-6.49,1.3-1.89,3.06-3.38,5.29-4.46,2.23-1.08,4.75-1.62,7.56-1.62s5.32.54,7.48,1.63c2.16,1.09,3.87,2.58,5.14,4.47,1.27,1.89,1.97,4.05,2.11,6.47h-2.85Z"/>
      <path class="cls-2" d="M385.37,75.69l-2.64.72c-.42-1.34-1.02-2.49-1.8-3.46-.78-.97-1.76-1.72-2.94-2.26-1.18-.53-2.59-.8-4.22-.8-2.64,0-4.79.67-6.47,2.01-1.68,1.34-2.52,3.08-2.52,5.23,0,1.75.57,3.2,1.71,4.34,1.14,1.14,2.88,2,5.22,2.59l5.52,1.41c2.84.72,4.98,1.88,6.41,3.48,1.44,1.6,2.15,3.59,2.15,5.96,0,2.02-.54,3.81-1.62,5.37-1.08,1.56-2.56,2.78-4.46,3.65-1.9.88-4.1,1.31-6.61,1.31-3.35,0-6.11-.8-8.26-2.4-2.15-1.6-3.53-3.9-4.14-6.89l2.74-.72c.51,2.39,1.59,4.21,3.22,5.46,1.63,1.25,3.77,1.87,6.42,1.87,2.93,0,5.3-.71,7.1-2.13,1.8-1.42,2.7-3.23,2.7-5.45,0-1.69-.53-3.11-1.59-4.28-1.06-1.16-2.67-2.01-4.82-2.56l-5.73-1.43c-2.93-.73-5.13-1.91-6.6-3.52-1.47-1.62-2.2-3.61-2.2-5.98,0-1.98.51-3.71,1.52-5.21,1.01-1.5,2.41-2.67,4.19-3.51,1.78-.84,3.81-1.27,6.11-1.27,3.04,0,5.52.73,7.44,2.2,1.92,1.47,3.31,3.55,4.17,6.26Z"/>
      <path class="cls-1" d="M195.36,103.45h-2.93v-45.58h2.93v45.58ZM216.29,103.45h-3.78l-16.69-16.82,15.78-13.76h3.65l-15.91,13.56,16.95,17.02Z"/>
      <path class="cls-1" d="M223.72,62.7c-1.24,0-2.22-.98-2.22-2.22s.98-2.22,2.22-2.22,2.22.98,2.22,2.22-.98,2.22-2.22,2.22ZM225.15,103.45h-2.93v-30.58h2.93v30.58Z"/>
      <path class="cls-1" d="M261.21,103.45h-2.87v-20.41c0-2.48-.39-4.89-2.15-6.65-1.5-1.56-3.39-2.28-6.19-2.28-4.56,0-8.41,3.32-10.76,7.17v22.17h-2.87v-30.64l2.87.06v5.02c2.74-3.78,6.39-6.06,11.54-6.06,3,0,5.61.85,7.37,2.48,2.28,2.15,3.06,4.89,3.06,8.61v20.54Z"/>
      <path class="cls-2" d="M288.78,103.45h-16.17v-52.09h16.17c18.78,0,27.12,13.34,27.12,26.08s-8.27,26.01-27.12,26.01ZM288.03,54.27h-11.92v46.28h11.92c17.81,0,23.92-12.3,23.92-23.1s-6.11-23.18-23.92-23.18Z"/>
      <path class="cls-2" d="M326.33,85.42c.07,10.43,6.63,16.02,14.23,16.54.45,0,.97.07,1.49.07,3.87,0,7.68-1.04,11.1-3.06l.45,2.76c-3.43,1.94-7.68,2.98-12.74,2.98-10.51,0-17.88-7.9-17.88-18.78s7.08-18.7,16.84-18.7c4.62,0,8.35,1.49,10.88,4.25,2.83,3.06,4.17,7.53,4.17,13.93h-28.54ZM351.52,82.88c-.22-8.27-4.62-12.97-11.77-12.97-6.63,0-12.3,5.36-13.26,12.97h25.04Z"/>
      <path class="cls-2" d="M395.85,103.45h-3.35v-52.09h3.35v52.09ZM419.77,103.45h-4.32l-19.08-19.23,18.03-15.72h4.17l-18.18,15.5,19.37,19.45Z"/>
    </g>
  </g>
</svg>