<?xml version="1.0" encoding="UTF-8"?>
<svg id="Layer_2" data-name="Layer 2" xmlns="http://www.w3.org/2000/svg" viewBox="0 0 249.26 171.82">
  <defs>
    <style>
      .cls-1, .cls-2 {
        fill: none;
      }

      .cls-2 {
        stroke: #fff;
        stroke-miterlimit: 10;
        stroke-width: 3px;
      }

      .cls-3, .cls-4 {
        isolation: isolate;
      }

      .cls-5, .cls-4 {
        fill: #fff;
      }

      .cls-6 {
        fill: #888e7f;
      }

      .cls-7 {
        fill: #cc9887;
      }

      .cls-8 {
        fill: #bfc4ba;
      }

      .cls-4 {
        font-family: MinionPro-Capt, 'Minion Pro';
        font-size: 29.23px;
      }

      .cls-9 {
        fill: #83897a;
      }

      .cls-10 {
        letter-spacing: .09em;
      }

      .cls-11 {
        letter-spacing: .1em;
      }

      .cls-12 {
        letter-spacing: .08em;
      }

      .cls-13 {
        letter-spacing: .08em;
      }
    </style>
  </defs>
  <g id="Layer_2-2" data-name="Layer 2">
    <g id="Layer_1-2" data-name="Layer 1-2">
      <path class="cls-5" d="M87.16,82.75c1.1,3.46,3.45,4.69,6.4,5.1-4.68.47-6.65,3.8-7.15,8.74-.37-2.21-.71-4.33-2.02-6.07-1.34-1.79-3.14-2.22-5.11-2.72,4.78-.38,6.73-3.7,7.03-9.06.32,1.52.56,2.72.85,4h0Z"/>
      <path class="cls-7" d="M59.97,170.1c.11-.07.3-.13.51-.13-.13.09-.28.12-.51.13Z"/>
      <path class="cls-7" d="M61.57,169.86c.12-.1.3-.18.53-.21-.13.12-.29.17-.53.21Z"/>
      <path class="cls-9" d="M47.53,49.81c-.11.13-.27.28-.52.41.1-.13.28-.27.52-.41Z"/>
      <path class="cls-8" d="M83.53,164.17c-.06-.03-.1-.1-.14-.17.05.04.11.09.14.17Z"/>
      <path class="cls-6" d="M52.15,47.63c-.05.08-.17.16-.3.17.07-.1.15-.13.3-.17Z"/>
      <path class="cls-9" d="M48.12,49.5c-.04.08-.15.17-.33.25.04-.09.15-.17.33-.25Z"/>
      <path class="cls-8" d="M82.86,164.54l-.04.09s0-.05.03-.07.02-.02.02-.02h0Z"/>
      <path class="cls-8" d="M82.87,164.55l.04-.09s0,.05-.03.07-.02.02-.02.02h0Z"/>
      <path class="cls-5" d="M88.36,67.09c-1.24-.44-1.94-1.33-1.95-2.43,0-.92.67-1.88,1.58-2.26.95-.39,2.03-.15,2.74.61.69.74.88,1.92.45,2.78-.52,1.03-1.47,1.48-2.81,1.29h0Z"/>
      <path class="cls-2" d="M18.89,149.22C2.71,133.6-2.73,110.48,4.91,89.39c2.31-6.38,5.54-12.46,9.76-17.79,3.82-4.84,10.59-10.16,16.37-12.47"/>
      <path class="cls-2" d="M95.14,68.85c8.22,7.5,14.73,18.13,16.7,29.14,2.35,13.19.5,26.37-5.81,38.21-5.39,10.13-14.12,19.13-24.5,24.15-.93.45-1.89.87-2.85,1.26-1.74.69-3.52,1.3-5.29,1.91"/>
      <path class="cls-5" d="M84.27,153.06c.82-2.75,2.04-5.3,2.58-8.18s.72-5.83.54-8.76c-.35-5.85-2.12-11.63-5.27-16.59-8.64-13.57-25.32-19.5-36.92-30.65-3.28-3.15-6.19-6.8-7.71-11.09-1.39-3.94-1.52-8.27-.67-12.36.86-4.17,2.77-8.18,5.8-11.17,5.76-5.67,14.81-6.88,22.68-5.01,3.53.84,6.91,2.25,10.01,4.13,1.6.97,3.12,2.07,4.55,3.27,1.36,1.14,2.57,2.76,3.95,3.74-2.94-4.82-7.72-8.67-12.85-10.96-5.34-2.38-11.01-3.6-16.84-3.07-6.65.6-13.22,2.91-18.41,7.12-9.09,7.37-12.92,20.6-9.17,31.69,3.37,9.97,11.87,17.32,20.69,23.06,8.82,5.74,18.43,10.48,26.06,17.73,3.68,3.49,6.8,7.67,8.87,12.32,1.82,4.09,3.69,10.33,2.11,14.78h0Z"/>
      <path class="cls-5" d="M22.27,155.47c-1.24-.44-1.94-1.33-1.95-2.43,0-.92.67-1.88,1.58-2.26.95-.39,2.03-.15,2.74.61.69.74.88,1.92.45,2.78-.52,1.03-1.47,1.48-2.81,1.29h0Z"/>
      <path class="cls-5" d="M25.68,91.89c-.15,2.71.52,5.55,1.29,8.13.66,2.24,1.53,4.42,2.66,6.47,1.46,2.63,3.08,5.39,4.94,7.74,2.72,3.45,6.04,6.38,9.38,9.21,4.9,4.16,10.03,8.36,14.26,13.23,6.94,7.98,12.7,21.74,2.5,29.76-2.25,1.77-5.05,2.42-7.85,2.65-4.75.38-9.23-.62-13.55-2.56-4.64-2.09-8.89-5.1-12.33-8.86,2.69,2.94,5.31,5.89,8.52,8.29,3.7,2.76,8.85,4.75,13.41,5.44,4.46.67,9.08.57,13.48-.49,1.8-.43,3.56-1.04,5.23-1.83,7.37-3.49,11.53-10.78,11.44-18.81-.11-9.6-5.93-16.7-13.03-22.4-7.71-6.2-16.54-10.7-24.71-16.22-2.85-1.92-5.65-3.93-7.98-6.49-1.7-1.88-3.4-3.98-4.66-6.19-.64-1.12-1.18-2.48-1.57-3.7s-.67-2.23-1.14-3.33c-.05-.13-.27-.27-.28-.03h0Z"/>
      <g>
        <path class="cls-5" d="M129.6,107.21c-.53-2.05-1.4-3.71-4.06-3.71-2.19,0-3.19,1.64-3.19,3.36,0,2.25,1.26,3.16,3.54,4.5,2.22,1.32,4.79,2.78,4.79,5.93s-2.57,5.44-5.99,5.44c-1.64,0-3.27-.5-4.15-.85-.17-.79-.61-3.36-.67-3.92l.41-.09c.5,1.78,1.81,4.24,4.82,4.24,2.48,0,3.54-1.96,3.54-3.92,0-2.25-1.52-3.48-3.56-4.74-2.19-1.34-4.59-2.75-4.59-5.7,0-2.75,2.25-4.88,5.55-4.88,1.78,0,2.89.35,3.54.47.12,1.02.26,2.39.47,3.77l-.44.09h0Z"/>
        <path class="cls-5" d="M147.72,122.29c-2.02,0-3.07.03-3.56.09-1.14-1.43-4.29-5.29-4.62-5.67-.47-.58-.67-.73-.85-.73-.12,0-.29,0-.47.06v3.42c0,1.99.15,2.25,1.96,2.48v.35h-5.73v-.35c1.73-.24,1.9-.44,1.9-2.54v-14.38c0-2.22-.2-2.22-1.87-2.48v-.35c1.29-.12,2.92-.56,3.83-.99-.06.7-.09,2.57-.09,3.8v10.61c.64-.17,1.11-.5,1.64-.97.61-.56,1.78-1.87,2.43-2.72.93-1.2.5-1.29-1.11-1.46v-.38l5.32-.24v.35c-1.75.38-2.1.61-3.48,1.96-.53.56-1.66,1.78-2.54,2.75.44.58,3.33,4.21,4.38,5.35,1.32,1.43,1.7,1.58,2.87,1.7v.35h0Z"/>
        <path class="cls-5" d="M150.02,122.29v-.35c1.81-.29,1.93-.44,1.93-2.54v-5.87c0-1.99-.12-2.14-1.66-2.43v-.29c1.17-.24,2.46-.58,3.62-1.14-.03.58-.06,2.31-.06,3.62v6.08c0,2.16.17,2.28,1.93,2.57v.35h-5.76Z"/>
        <path class="cls-5" d="M166.97,122.29v-.35c1.81-.24,1.93-.44,1.93-2.72v-4.56c0-1.78-.56-3.51-2.63-3.51-1.26,0-2.34.67-3.16,1.4v6.81c0,2.14.2,2.28,1.87,2.57v.35h-5.7v-.35c1.84-.26,1.93-.53,1.93-2.54v-5.9c0-1.81-.09-1.99-1.49-2.37v-.29c1.11-.17,2.39-.64,3.45-1.23-.03.53-.09,1.32-.06,2.37.56-.44,1.26-.93,1.99-1.43.85-.5,1.37-.82,2.19-.82,2.22,0,3.51,1.7,3.51,4.33v5.41c0,2.05.17,2.22,1.66,2.48v.35h-5.5Z"/>
      </g>
      <g class="cls-3">
        <text class="cls-4" transform="translate(178.82 122.73)"><tspan class="cls-11" x="0" y="0">D</tspan><tspan class="cls-10" x="24.58" y="0">e</tspan></text>
        <text class="cls-4" transform="translate(216.02 122.73)"><tspan class="cls-12" x="0" y="0">s</tspan><tspan class="cls-13" x="13.18" y="0">k</tspan></text>
      </g>
      <line class="cls-1" x1="120.54" y1="121.88" x2="112.82"/>
      <line class="cls-1" x1="243.16" y1="124.44" x2="249.26" y2=".31"/>
      <path class="cls-5" d="M153.11,103.98c.3.95.95,1.28,1.75,1.4-1.28.13-1.82,1.04-1.96,2.39-.1-.6-.19-1.18-.55-1.66-.37-.49-.86-.61-1.4-.74,1.31-.1,1.84-1.01,1.92-2.48.09.41.15.74.23,1.09h0Z"/>
    </g>
  </g>
</svg>