<svg width="111" height="42" viewBox="0 0 111 42" fill="none" xmlns="http://www.w3.org/2000/svg">
<g clip-path="url(#clip0_458_20046)">
<path d="M20.8638 41.828C20.7528 41.8513 20.6418 41.8776 20.4957 41.8746C20.3876 41.8688 20.3146 41.8892 20.2416 41.9096C20.1043 41.9329 19.967 41.9563 19.7917 41.9475C19.4148 41.9067 19.0789 41.898 18.7429 41.8892C18.4508 41.8805 18.1616 41.8659 17.8695 41.8513C17.8666 41.8105 17.8636 41.7668 17.8607 41.726C17.9834 41.6735 18.109 41.6239 18.2288 41.5627C18.518 41.4228 18.518 41.2245 18.2814 41.0088C18.1704 40.9068 18.1324 40.7231 18.0623 40.5744C19.1899 40.35 20.2357 39.9447 21.191 39.283C23.8727 37.4289 24.5855 33.8694 22.8357 31.1232C21.7402 29.4032 20.1977 28.1671 18.5618 27.0156C16.7331 25.73 14.9131 24.4356 13.0873 23.1412C13.026 23.0975 12.9763 23.0363 12.9354 22.9459C13.0669 22.7972 13.2217 22.704 13.2918 22.5669C13.4875 22.1763 13.8586 22.0218 14.1974 21.8177C14.9686 22.2113 15.7282 22.6282 16.5111 22.9955C18.6904 24.0158 20.8813 25.0041 23.0606 26.0273C24.5797 26.7416 26.0023 27.6162 27.2117 28.7852C28.7542 30.2749 29.7211 32.0415 29.5575 34.2571C29.4611 35.5806 28.9265 36.7496 28.1027 37.7845C26.3207 40.0264 23.9428 41.242 21.1238 41.758C21.004 41.7668 20.9339 41.7959 20.8638 41.8251V41.828Z" fill="#D09C89"/>
<path d="M21.6496 23.5931C21.4276 23.5086 21.2085 23.4211 20.9836 23.2987C21.2261 23.2112 21.3078 23.0334 21.2407 22.8293C21.1384 22.5116 21.0099 22.1938 20.8492 21.8994C20.6915 21.6107 20.8054 21.0743 21.0566 20.8615C21.1822 20.7537 21.3195 20.5088 21.2757 20.3893C21.1705 20.1006 21.2494 19.9141 21.3984 19.6808C21.4744 19.5613 21.4364 19.3368 21.3809 19.1882C21.3575 19.127 21.1472 19.0978 21.0303 19.1124C20.6038 19.1619 20.2036 18.7596 20.3059 18.3049C20.3935 17.9171 20.1218 17.7189 19.8998 17.7014C19.5697 17.6781 19.5843 17.4886 19.631 17.3282C19.6953 17.1067 19.8443 16.9084 19.9582 16.6985C20.1189 16.7918 20.2796 16.888 20.4578 17.028C20.522 17.2787 20.6184 17.3691 20.8229 17.2379C20.9573 17.3282 21.0917 17.4215 21.2407 17.5615C21.4072 18.0979 21.6438 18.2057 21.9768 17.9404C23.7179 18.9112 25.3976 19.9753 26.8963 21.2959C28.018 22.2842 28.9996 23.392 29.7387 24.7009C30.989 26.9136 31.36 29.3012 31.1497 31.8025C31.1321 32.0211 31.1234 32.2397 31.1 32.4584C31.0766 32.6625 31.0416 32.8665 30.9977 33.1435C30.6443 29.8201 28.6753 27.6686 26.0725 26.0011C24.8806 25.2373 23.5865 24.6309 22.3391 23.9517C22.193 23.873 22.0469 23.7884 21.9184 23.666C21.9038 23.5231 21.8717 23.424 21.8424 23.322L21.6467 23.596L21.6496 23.5931Z" fill="#7D8475"/>
<path d="M14.4866 7.48637C14.4603 8.11023 14.4341 8.73118 14.3756 9.39003C14.2062 9.44833 13.955 9.45125 13.9462 9.49498C13.8644 9.96725 13.7271 10.4599 13.7943 10.9176C13.8498 11.2995 14.0251 11.6406 13.8761 12.0517C13.7738 12.3344 13.8235 12.6726 13.7154 12.9525C13.5109 13.4976 13.5197 13.655 13.9082 14.0865C14.1244 14.3285 14.3318 14.5675 14.2997 14.9582C14.2851 15.1506 14.4107 15.4158 14.7349 15.4042C14.8226 15.4013 14.9833 15.4683 14.9891 15.5179C15.0008 15.6112 14.9424 15.7278 14.8839 15.8152C14.7729 15.9727 14.6531 16.1243 14.5158 16.2613C14.212 16.5674 13.9929 16.8793 14.2325 17.3341C14.2821 17.4303 14.2734 17.611 14.215 17.7072C13.841 18.3194 14.1595 18.7684 14.548 19.2232C14.4545 19.4156 14.3347 19.6255 14.6648 19.7362C14.8576 19.8004 15.0446 19.8762 15.2316 19.9549C15.7194 20.1648 15.772 20.2872 15.5763 20.7508C14.101 19.9403 12.7017 19.0249 11.5595 17.7218C11.8692 17.3516 11.9831 17.0396 11.764 16.5703C11.6033 16.2263 11.6267 15.7832 11.6209 15.3838C11.615 15.1272 11.8078 14.827 11.7289 14.6171C11.6033 14.2935 11.6822 14.0194 11.7173 13.7192C11.7319 13.5851 11.7406 13.4364 11.6997 13.311C11.5683 12.935 11.6267 12.591 11.7552 12.2237C11.8546 11.9438 11.8867 11.6289 11.8955 11.3287C11.9159 10.7602 11.8809 10.1888 11.9042 9.62325C11.9305 9.03728 12.211 8.42508 11.6559 7.92366C11.6121 7.88576 11.6179 7.7779 11.6238 7.7021C11.6442 7.29396 11.6618 6.88291 11.6968 6.47478C11.7319 6.04915 11.7786 5.62353 11.837 5.1979C11.8779 4.89763 11.9451 4.60027 12.0035 4.3C12.6813 3.52455 13.4992 2.92109 14.4194 2.40509C14.5275 2.97648 14.4808 3.03187 13.955 3.06977C13.841 3.07851 13.6979 3.08143 13.6249 3.14848C13.5372 3.22719 13.4379 3.40211 13.4729 3.48082C13.6365 3.85105 13.6132 4.16882 13.4291 4.53905C13.3269 4.74021 13.321 5.13376 13.4525 5.27661C13.6745 5.51858 13.7476 5.74888 13.7125 6.03749C13.6511 6.56807 13.5489 7.09864 13.5138 7.62922C13.5051 7.77498 13.6804 7.9324 13.7738 8.08691C13.8586 8.01695 14.0192 7.93532 14.0105 7.8741C13.9696 7.47762 14.2033 7.46013 14.4896 7.48637H14.4866Z" fill="#8D9385"/>
<path d="M11.9772 4.30875C11.9451 4.59736 11.875 4.89471 11.8341 5.19498C11.7757 5.61769 11.7318 6.04624 11.6939 6.47186C11.6588 6.88 11.6413 7.29105 11.6208 7.69918C11.6179 7.77498 11.6121 7.88284 11.653 7.92074C12.208 8.42216 11.9276 9.03728 11.9013 9.62033C11.8779 10.1888 11.913 10.7573 11.8925 11.3258C11.8808 11.626 11.8516 11.9409 11.7523 12.2207C11.6208 12.5881 11.5653 12.9321 11.6968 13.3081C11.7406 13.4306 11.7318 13.5822 11.7143 13.7163C11.6793 14.0165 11.6004 14.2906 11.726 14.6142C11.8078 14.8241 11.615 15.1214 11.6179 15.3809C11.6238 15.7803 11.6004 16.2234 11.7611 16.5674C11.9802 17.0367 11.8662 17.3487 11.5449 17.6956C10.6451 16.8443 9.97907 15.8152 9.57009 14.6491C8.19125 10.7194 9.20493 7.31728 11.9685 4.30875H11.9772Z" fill="#959C8D"/>
<path d="M15.5938 20.7682C15.772 20.2814 15.7194 20.159 15.2316 19.952C15.0446 19.8733 14.8577 19.7975 14.6649 19.7333C14.3347 19.6225 14.4545 19.4126 14.548 19.2202C14.1595 18.7655 13.8411 18.3165 14.215 17.7043C14.2734 17.6081 14.2822 17.4303 14.2325 17.3312C13.9959 16.8764 14.2121 16.5645 14.5159 16.2583C14.6502 16.1213 14.7729 15.9697 14.8839 15.8123C14.9424 15.7278 15.0008 15.6112 14.9891 15.515C14.9833 15.4654 14.8226 15.3984 14.735 15.4013C14.4136 15.4129 14.2851 15.1476 14.2997 14.9552C14.3318 14.5646 14.1244 14.3285 13.9082 14.0836C13.5226 13.6492 13.5109 13.4947 13.7154 12.9495C13.8206 12.6697 13.7709 12.3315 13.8761 12.0487C14.0251 11.6377 13.8498 11.2966 13.7943 10.9147C13.7271 10.457 13.8644 9.96433 13.9462 9.49206C13.955 9.44833 14.2062 9.44541 14.3698 9.42209C14.4341 9.70195 14.472 9.9789 14.4896 10.3171C14.4341 10.6115 14.3552 10.8535 14.3815 11.0809C14.3903 11.1625 14.659 11.215 14.8109 11.2791C15.252 12.486 16.0525 13.4451 16.9493 14.3343C17.1596 14.5442 17.3816 14.7424 17.5861 14.9815C16.9288 15.4362 16.8879 16.0339 17.0603 16.7015C17.1392 17.0076 17.2443 17.3137 17.2765 17.6256C17.3145 18.0162 17.2969 18.4098 17.2823 18.8034C17.2736 19.0308 17.2268 19.2581 17.1976 19.4826C17.2531 19.7916 17.1392 20.3543 17.6971 20.2202C17.7819 20.5146 17.8783 20.7566 17.9104 21.0073C17.9338 21.1968 17.8753 21.395 17.852 21.5903C17.7001 21.5728 17.5511 21.5524 17.3992 21.5379C17.2852 21.5262 17.1684 21.5233 17.0515 21.5145C16.5695 21.2726 16.0875 21.0277 15.588 20.7653L15.5938 20.7682Z" fill="#898E80"/>
<path d="M17.0749 21.5378C17.1742 21.5262 17.2881 21.5291 17.405 21.5408C17.5569 21.5553 17.7088 21.5757 17.8578 21.5932C17.8812 21.3979 17.9396 21.1997 17.9162 21.0102C17.8841 20.7595 17.7848 20.5175 17.703 20.2231C17.1421 20.3543 17.256 19.7945 17.2034 19.4855C17.2326 19.2581 17.2823 19.0337 17.2881 18.8063C17.3028 18.4127 17.3203 18.0162 17.2823 17.6285C17.2531 17.3166 17.145 17.0105 17.0661 16.7044C16.8938 16.0368 16.9347 15.4391 17.6036 15.0077C18.2989 15.48 18.9708 15.9668 19.6427 16.4566C19.7362 16.5236 19.8297 16.5907 19.9407 16.6781C19.8443 16.9084 19.6953 17.1038 19.631 17.3282C19.5843 17.4915 19.5697 17.6781 19.8998 17.7014C20.1218 17.7189 20.3935 17.9171 20.3058 18.3048C20.2036 18.7596 20.6038 19.1619 21.0303 19.1124C21.1472 19.0978 21.3575 19.1269 21.3809 19.1882C21.4364 19.3398 21.4743 19.5613 21.3984 19.6808C21.2523 19.9141 21.1705 20.1006 21.2757 20.3892C21.3195 20.5088 21.1822 20.7536 21.0566 20.8615C20.8054 21.0743 20.6914 21.6107 20.8492 21.8993C21.0099 22.1938 21.1355 22.5115 21.2406 22.8293C21.3078 23.0334 21.226 23.2112 20.9631 23.2812C19.6602 22.7214 18.3778 22.1413 17.0749 21.5408V21.5378Z" fill="#83897B"/>
<path d="M17.2823 1.02907C18.3223 0.784193 19.3506 0.443109 20.4052 0.317753C23.4345 -0.0437375 26.3324 0.451855 29.058 1.85992C30.1915 2.44589 31.211 3.18927 32.1458 4.0551C32.2247 4.12798 32.2889 4.21544 32.3065 4.3612C32.2364 4.32622 32.1604 4.3029 32.0991 4.25917C29.7796 2.52751 27.1884 1.54507 24.2846 1.3964C21.6409 1.25938 19.2074 1.85409 17.0457 3.41083C16.6864 3.67029 16.4088 4.04344 16.0729 4.34663C15.9648 4.11924 15.9093 3.89768 15.7925 3.7111C15.6581 3.49537 15.4448 3.32921 15.3104 3.11056C15.2316 2.98229 15.2053 2.78697 15.2403 2.64412C15.2579 2.57707 15.474 2.545 15.6055 2.52168C15.7603 2.49544 15.9969 2.56833 15.959 2.30304C15.9268 2.07856 16.1722 1.72873 15.7223 1.65002C16.1751 1.45762 16.6279 1.26229 17.1129 1.09029C17.1918 1.08155 17.2385 1.05531 17.2852 1.02907H17.2823Z" fill="#83897B"/>
<path d="M8.36938 3.39335C6.2865 5.0667 4.6389 7.07531 3.34477 9.3667C2.27266 11.2645 1.51605 13.2906 1.0428 15.4246C0.654269 17.1679 0.423488 18.9287 0.511126 20.7128C0.622135 22.9488 1.01359 25.1353 1.80818 27.2401C2.47131 28.998 3.33016 30.6538 4.37014 32.2106C4.09846 32.5458 3.99914 32.5633 3.78004 32.1785C3.11399 31.0124 2.43333 29.8522 1.84907 28.6482C1.01067 26.9194 0.528654 25.0741 0.227762 23.1791C0.140123 22.634 0.0816974 22.0801 0.046642 21.5291C-0.105265 19.0541 0.128438 16.6169 0.806176 14.2264C1.52189 11.6931 2.57063 9.31422 4.17442 7.21816C4.98653 6.15701 5.88629 5.14833 6.82402 4.19504C7.94287 3.06101 9.24284 2.13396 10.6538 1.38766C11.5331 0.924134 12.4504 0.533491 13.3502 0.113695C13.4875 0.0495592 13.6335 0.011661 13.7942 0C11.8165 0.851253 10.0579 2.04067 8.36938 3.39335Z" fill="#C0C4BA"/>
<path d="M40.0858 18.7742C40.08 19.8908 40.1384 20.9811 40.0274 22.0539C39.8989 23.2783 39.6798 24.5027 39.3876 25.6979C38.5638 29.065 37.0477 32.1027 34.9122 34.8372C33.4633 36.6943 31.7251 38.2452 29.8321 39.6357C29.7474 39.6999 29.6452 39.7407 29.5049 39.729C29.7591 39.525 30.0074 39.318 30.2645 39.1139C32.7972 37.117 34.7574 34.6419 36.3554 31.8666C37.5618 29.7705 38.482 27.5579 38.9874 25.1936C39.2416 24.0013 39.3818 22.7827 39.5103 21.567C39.5951 20.7741 39.6009 19.9695 39.5863 19.1707C39.5571 17.3049 39.2299 15.4829 38.707 13.6958C38.2074 11.9875 37.4771 10.3812 36.5686 8.85653C36.4255 8.61457 36.4985 8.48047 36.7643 8.32596C38.7975 11.5182 39.8901 14.9815 40.0858 18.7742Z" fill="#C0C4BA"/>
<path d="M86.4875 20.5379C87.1594 22.3104 87.2149 24.045 86.5197 25.7825C85.6813 27.8785 84.0892 29.0359 81.8777 29.2108C80.3207 29.3332 78.7432 29.2341 77.2125 29.2341C77.2563 28.861 77.3322 28.4966 77.3352 28.1351C77.3468 24.9487 77.3498 21.7594 77.3352 18.5731C77.3352 18.1649 77.2183 17.7568 77.1453 17.2874C77.5396 17.2874 78.0187 17.2699 78.4978 17.2903C79.8825 17.3457 81.2789 17.3166 82.646 17.5032C84.4572 17.751 85.7134 18.8471 86.4905 20.5379M85.877 23.0625C85.8419 22.704 85.8127 22.3454 85.7718 21.9897C85.5235 19.7392 83.9665 17.9958 81.8339 17.7072C80.9108 17.5819 79.9614 17.646 79.0266 17.5877C78.5358 17.5556 78.381 17.7043 78.3839 18.2145C78.4073 21.2755 78.3927 24.3394 78.3927 27.4004C78.3927 27.7794 78.4043 28.1555 78.4073 28.5345C78.4073 28.8464 78.5446 28.9776 78.8717 28.9688C79.7189 28.9455 80.5719 29.0009 81.4162 28.9339C82.7278 28.8289 83.8292 28.275 84.6617 27.2226C85.6082 26.0274 85.8565 24.6339 85.8741 23.0655L85.877 23.0625Z" fill="#61746E"/>
<path d="M47.5789 29.4061C46.2497 29.4907 45.0374 29.2983 44.0325 28.4295C43.7666 28.1992 43.5475 27.8989 43.3606 27.5987C43.1064 27.1905 43.1298 26.8174 43.679 26.59C43.7199 26.6804 43.7666 26.7707 43.8017 26.864C44.5087 28.7327 46.5477 29.6393 48.4056 28.9105C50.1087 28.2429 50.5674 25.9049 49.1623 24.7446C48.5809 24.2636 47.8214 23.9954 47.132 23.6456C46.314 23.2316 45.4405 22.908 44.6752 22.4154C43.6439 21.7536 43.3138 20.707 43.5563 19.5322C43.7813 18.436 44.4853 17.6926 45.5545 17.3895C47.0122 16.9726 48.4524 16.9872 49.7348 17.9521C50.3425 18.4098 50.4798 19.0074 50.1496 19.8208C50.0211 19.5876 49.9101 19.4214 49.8341 19.2436C49.1447 17.5935 47.1612 16.8968 45.5837 17.7568C44.1669 18.5293 43.9624 20.6137 45.3062 21.5029C46.2088 22.1005 47.2693 22.4649 48.2654 22.9255C49.0542 23.2899 49.8546 23.6281 50.395 24.3569C51.6395 26.039 50.8391 28.4441 48.7883 29.1525C48.4173 29.2808 48.0171 29.3245 47.5818 29.4119L47.5789 29.4061Z" fill="#61746E"/>
<path d="M59.6146 29.2516C59.0829 29.3362 58.7294 29.1729 58.3993 28.7823C57.4587 27.6686 56.4742 26.59 55.5073 25.4939C55.4021 25.3743 55.3115 25.2402 55.2327 25.1353C54.7361 25.3918 54.6046 25.7242 54.6192 26.1935C54.6513 27.1818 54.628 28.1701 54.628 29.2108H53.6873C53.6873 26.9486 53.6873 24.7038 53.6873 22.4562C53.6873 21.1414 53.6932 19.8266 53.6669 18.5148C53.6581 18.0775 53.5559 17.6431 53.4945 17.1825H54.6134V25.2636C55.1333 24.7884 55.5394 24.424 55.9367 24.0508C56.6495 23.3861 57.3652 22.7273 58.0605 22.048C58.2124 21.8994 58.2825 21.6691 58.4432 21.3834H59.4685C58.262 22.4299 57.0526 23.4823 55.779 24.5901C57.1929 26.1673 58.5746 27.7153 59.9535 29.2545C59.9213 29.2545 59.7899 29.2545 59.6117 29.2545L59.6146 29.2516Z" fill="#61746E"/>
<path d="M105.669 20.1794C105.669 21.8469 105.669 23.4619 105.669 25.2111C106.016 24.9021 106.279 24.6718 106.536 24.4386C107.398 23.6456 108.266 22.8585 109.11 22.051C109.274 21.8935 109.349 21.6399 109.516 21.3396H110.576C109.355 22.4095 108.149 23.4678 106.878 24.5814C108.28 26.1585 109.636 27.6832 111 29.2137C110.34 29.342 109.808 29.2662 109.309 28.6336C108.377 27.45 107.328 26.3568 106.314 25.2111C105.859 25.3598 105.645 25.6134 105.663 26.1177C105.698 27.1381 105.675 28.1613 105.675 29.2166H104.751C104.751 28.9514 104.751 28.689 104.751 28.4266C104.754 25.1324 104.766 21.8411 104.751 18.5468C104.751 18.1008 104.629 17.6519 104.559 17.1825H105.672C105.672 18.162 105.672 19.1415 105.672 20.1765L105.669 20.1794Z" fill="#61746E"/>
<path d="M18.036 40.5657C18.1383 40.7231 18.1733 40.9068 18.2843 41.0088C18.5209 41.2216 18.5209 41.4228 18.2317 41.5627C18.112 41.621 17.9863 41.6706 17.8637 41.726C17.8666 41.7668 17.8695 41.8105 17.8724 41.8513C18.1645 41.863 18.4538 41.8776 18.7459 41.8892C19.0818 41.9009 19.4178 41.9067 19.7654 41.9446C15.9561 42.2711 12.544 41.2741 9.60519 38.7845C9.16115 38.4084 8.74925 38.0003 8.33443 37.5921C8.27308 37.5338 8.27892 37.4056 8.25555 37.3094C8.34319 37.3385 8.45128 37.3473 8.51555 37.4026C10.0989 38.7874 11.9159 39.7319 13.9404 40.2887C15.2783 40.6561 16.6367 40.7115 18.0389 40.5657H18.036Z" fill="#CB9787"/>
<path d="M15.7224 1.65587C16.1693 1.73167 15.9239 2.0815 15.9561 2.30597C15.994 2.57126 15.7574 2.49838 15.6026 2.52461C15.4711 2.54794 15.255 2.58 15.2374 2.64705C15.2024 2.7899 15.2287 2.98522 15.3075 3.11349C15.439 3.32922 15.6523 3.49831 15.7896 3.71404C15.9064 3.90061 15.9619 4.12217 16.0466 4.36122C15.3514 5.31451 14.8285 6.32027 14.4983 7.45722C14.2033 7.45722 13.9667 7.47471 14.0076 7.87118C14.0134 7.9324 13.8527 8.01111 13.7709 8.08399C13.6804 7.9324 13.5022 7.77498 13.511 7.6263C13.5431 7.09281 13.6483 6.56515 13.7096 6.03457C13.7417 5.74596 13.6687 5.51566 13.4496 5.27369C13.3181 5.13085 13.324 4.73729 13.4262 4.53614C13.6103 4.1659 13.6336 3.84814 13.4701 3.4779C13.435 3.39919 13.5372 3.22427 13.622 3.14556C13.695 3.07851 13.8381 3.0756 13.9521 3.06685C14.4779 3.02895 14.5246 2.97356 14.4428 2.39343C14.6795 2.2156 14.9365 2.05817 15.2491 1.89784C15.3689 1.84828 15.4332 1.80163 15.5003 1.75499C15.5003 1.75499 15.5208 1.7375 15.5617 1.7375C15.6464 1.70834 15.6873 1.68211 15.7311 1.65295C15.7311 1.65295 15.7253 1.65878 15.7224 1.65295V1.65587Z" fill="#898E80"/>
<path d="M71.8928 22.4853C71.0223 21.2143 68.7553 21.258 67.7826 22.9693C67.6832 23.1442 67.6745 23.3832 67.6715 23.5931C67.6628 25.4618 67.6657 27.3276 67.6657 29.2254H66.7192C66.7192 27.0127 66.7163 24.8234 66.7192 22.634C66.7192 22.1559 66.6929 21.7011 66.0941 21.363H67.6248C67.6453 21.7361 67.6657 22.118 67.692 22.6019C68.472 21.5641 69.4389 21.1239 70.6337 21.1531C72.1499 21.191 73.1636 22.1763 73.1928 23.7156C73.2191 25.1003 73.1899 26.488 73.2103 27.8727C73.2161 28.31 73.3038 28.7473 73.3564 29.2137H72.2872C72.2784 29.0417 72.258 28.8551 72.258 28.6686C72.2521 27.1031 72.2784 25.5347 72.2346 23.9721C72.22 23.4853 72.0243 23.0042 71.8899 22.4853H71.8928Z" fill="#61746E"/>
<path d="M14.1857 21.8032C13.8644 22.0247 13.4934 22.1821 13.2977 22.5728C13.2305 22.7098 13.0727 22.8002 12.9296 22.9255C11.6501 21.9868 10.6831 20.7799 9.89146 19.4389C9.08518 18.0716 8.53306 16.6053 8.3052 15.0281C8.29936 14.996 8.31396 14.9611 8.31688 14.9436C8.62654 15.6228 8.89822 16.3341 9.26338 16.9901C10.2011 18.6634 11.5128 20.0015 13.1019 21.0714C13.4554 21.3105 13.8118 21.5437 14.1828 21.8002L14.1857 21.8032Z" fill="#D2A28F"/>
<path d="M30.8487 11.3841C31.2752 12.5385 32.1808 12.9495 33.3143 13.0866C31.5119 13.2411 30.7494 14.3547 30.5566 16.0047C30.4135 15.2672 30.282 14.5617 29.7766 13.9757C29.2595 13.3781 28.5643 13.2323 27.8047 13.0691C29.6481 12.9437 30.3988 11.8359 30.5186 10.046C30.6413 10.5532 30.7377 10.9526 30.8458 11.3811L30.8487 11.3841Z" fill="#D2A878"/>
<path d="M101.906 28.6132C100.656 29.7268 98.5027 29.6714 97.454 28.5257C96.9691 27.9981 96.9545 27.692 97.4189 27.2314C97.5124 27.4354 97.5942 27.6278 97.6877 27.8173C98.2223 28.893 99.4171 29.3974 100.556 29.0301C101.702 28.6598 102.055 27.176 101.152 26.3801C100.784 26.0565 100.305 25.8495 99.8582 25.6251C99.3791 25.3831 98.8562 25.214 98.3917 24.9487C97.6147 24.5056 97.2495 23.8234 97.381 22.9139C97.5095 22.0422 98.0762 21.5525 98.8679 21.3017C99.8115 21.0044 100.723 21.1122 101.564 21.6487C102.084 21.981 102.154 22.3367 101.833 22.9634C101.737 22.7885 101.652 22.6369 101.567 22.4853C101.085 21.6049 100.063 21.2172 99.1133 21.5583C98.0879 21.9256 97.7841 23.22 98.6284 23.9051C99.1162 24.3044 99.756 24.5231 100.331 24.8117C100.603 24.9487 100.898 25.0449 101.167 25.1878C102.555 25.9049 102.867 27.3072 101.906 28.6132Z" fill="#61746E"/>
<path d="M92.7975 21.2697C94.4509 21.4008 95.5815 23.1267 95.3361 24.8059C95.155 24.8059 94.9622 24.8059 94.7694 24.8059C93.2006 24.8088 91.6319 24.8263 90.0632 24.8117C89.6571 24.8088 89.5198 24.9429 89.5432 25.3423C89.6513 27.1002 90.2414 28.3858 91.889 28.9164C91.8218 29.0942 91.7166 29.2225 91.6144 29.3507C91.5647 29.3507 91.5121 29.3507 91.407 29.3274C91.3135 29.2953 91.2755 29.2866 91.2404 29.2808C90.291 29.1437 89.66 28.5403 89.1751 27.7882C88.1643 26.2197 88.2491 23.5494 89.8412 22.1355C90.0106 22.2492 90.1158 22.3629 90.2092 22.5145C89.8791 23.1529 89.5286 23.7476 89.6191 24.4823H94.5035C94.3487 23.1791 94.1033 21.9839 92.704 21.4533C92.742 21.3746 92.7712 21.3221 92.8004 21.2726L92.7975 21.2697Z" fill="#61746E"/>
<path d="M5.70233 35.9712C5.07425 35.7497 4.72077 35.3007 4.71785 34.7498C4.71493 34.2891 5.05672 33.8023 5.51828 33.6128C5.99738 33.4175 6.54658 33.5399 6.90297 33.9218C7.25353 34.295 7.34701 34.8897 7.12791 35.3211C6.865 35.8371 6.38298 36.0645 5.70525 35.9712H5.70233Z" fill="#D09C89"/>
<path d="M35.3767 6.62052C35.2336 7.3231 34.8889 7.6671 34.3192 7.705C33.8401 7.73706 33.3523 7.42513 33.1887 6.9791C32.9637 6.37856 33.2559 5.75178 33.8606 5.53605C34.4857 5.31449 35.1196 5.62059 35.3154 6.24737C35.3504 6.35524 35.3592 6.47476 35.3767 6.61761V6.62052Z" fill="#83897B"/>
<path d="M62.5914 21.3688C62.7988 21.3688 62.9595 21.3688 63.1523 21.3688C63.1669 21.5408 63.1873 21.6807 63.1873 21.8206C63.1873 23.908 63.1815 25.9953 63.1932 28.0797C63.1932 28.447 63.2662 28.8172 63.31 29.2166H62.2321C62.2321 29.0213 62.2321 28.8143 62.2321 28.6044C62.235 26.5725 62.2496 24.5376 62.2321 22.5057C62.2291 22.1413 62.0889 21.7769 62.0042 21.3688C62.1269 21.3688 62.3343 21.3688 62.5914 21.3688Z" fill="#61746E"/>
<path d="M91.6494 29.377C91.7195 29.2225 91.8247 29.0942 91.9269 28.9338C92.8033 28.9513 93.6563 28.8668 94.3574 28.2663C94.635 28.0272 94.8482 27.7182 95.0907 27.4383C95.1462 27.4646 95.2046 27.4937 95.2601 27.52C95.1491 27.7561 95.0848 28.0301 94.9242 28.2225C94.0799 29.2341 92.9757 29.5752 91.6553 29.377H91.6494Z" fill="#61746E"/>
<path d="M62.6878 18.9462C62.235 18.8762 61.94 18.6401 62.0597 18.2203C62.1269 17.9842 62.4278 17.6722 62.6381 17.6577C62.8514 17.646 63.2019 17.9171 63.2837 18.1416C63.4415 18.5701 63.1494 18.8383 62.6849 18.9462H62.6878Z" fill="#61746E"/>
<path d="M92.7653 21.2405C92.7712 21.3221 92.742 21.3717 92.6543 21.4533C91.5968 21.328 90.8314 21.7215 90.218 22.4795C90.1128 22.3629 90.0077 22.2492 89.8674 22.1151C90.6357 21.2697 91.626 21.051 92.7653 21.2434V21.2405Z" fill="#61746E"/>
<path d="M14.8139 11.2499C14.6649 11.215 14.3961 11.1654 14.3873 11.0808C14.3581 10.8535 14.4399 10.6115 14.4954 10.3491C14.6123 10.6202 14.7145 10.9205 14.8168 11.2499H14.8139Z" fill="#8D9385"/>
<path d="M21.9622 17.9171C21.6467 18.2028 21.4072 18.0979 21.2552 17.5819C21.486 17.6664 21.7168 17.783 21.9622 17.9171Z" fill="#83897B"/>
<path d="M21.6672 23.6019C21.7139 23.4998 21.7811 23.4095 21.8454 23.3162C21.8775 23.4182 21.9067 23.5202 21.9096 23.6339C21.8162 23.6339 21.749 23.6223 21.6672 23.5989V23.6019Z" fill="#83897B"/>
<path d="M20.8083 17.2175C20.6214 17.369 20.525 17.2787 20.4782 17.0484C20.5805 17.0804 20.6856 17.1387 20.8083 17.2175Z" fill="#83897B"/>
<path d="M20.2708 41.9125C20.3146 41.8892 20.3877 41.8659 20.4665 41.8688C20.414 41.9009 20.3585 41.9067 20.2708 41.9125Z" fill="#CB9787"/>
<path d="M20.8901 41.8309C20.9368 41.7989 21.0069 41.7697 21.0916 41.761C21.042 41.7989 20.9777 41.8163 20.8901 41.8309Z" fill="#CB9787"/>
<path d="M15.477 1.7608C15.4361 1.80453 15.3718 1.85118 15.2783 1.89782C15.3163 1.85118 15.3864 1.80745 15.477 1.7608Z" fill="#83897B"/>
<path d="M29.3589 39.9302C29.3326 39.9185 29.3209 39.8981 29.3063 39.8748C29.3268 39.8894 29.3502 39.9039 29.3589 39.9302Z" fill="#C0C4BA"/>
<path d="M17.256 1.03201C17.2356 1.05825 17.1888 1.08449 17.1392 1.09032C17.1655 1.05825 17.1976 1.04659 17.256 1.03201Z" fill="#898E80"/>
<path d="M15.7048 1.65585C15.6873 1.68501 15.6464 1.71124 15.5763 1.7404C15.5909 1.71124 15.6347 1.68501 15.7048 1.65585Z" fill="#83897B"/>
<path d="M91.258 29.3012C91.2755 29.2866 91.3106 29.2954 91.3661 29.3216C91.3486 29.3362 91.3135 29.3274 91.258 29.3012Z" fill="#61746E"/>
<path d="M29.0984 40.0555L29.0843 40.084C29.0843 40.084 29.0871 40.0669 29.0956 40.0612C29.104 40.0555 29.1012 40.0555 29.1012 40.0555H29.0984Z" fill="#C0C4BA"/>
<path d="M29.1018 40.0578L29.1187 40.0293C29.1187 40.0293 29.1159 40.0464 29.1075 40.0521C29.099 40.0578 29.1018 40.0578 29.1018 40.0578Z" fill="#C0C4BA"/>
</g>
<defs>
<clipPath id="clip0_458_20046">
<rect width="111" height="42" fill="white"/>
</clipPath>
</defs>
</svg>
